# xmcd
#
# Track frame offsets:
#	150
#	23937
#	37636
#	57720
#	72421
#	87680
#	113285
#	129854
#	160825
#	173020
#	189936
#	204816
#	219724
#	240664
#
# Disc length: 3497 seconds
#
# Revision: 0
# Processed by: cddbd v1.5.2PL0 Copyright (c) Steve Scherf et al.
# Submitted via: EasyCDDAExtractor 2010.6.0.0
#
DISCID=b40da70e
DTITLE=Viklicky Emil - V Holomoci meste
DYEAR=1900
DGENRE=
TTITLE0=Pramen jazzove vody
TTITLE1=Skolni vylet
TTITLE2=Strechy
TTITLE3=Ukolebavka pro Teu
TTITLE4=Nocnim vlakem
TTITLE5=Kasny
TTITLE6=Jestrab
TTITLE7=Tanec na dolnim namesti
TTITLE8=Epilog
TTITLE9=Kasace pro vitr a dest
TTITLE10=BAzalicka
TTITLE11=Edwardian
TTITLE12=Dvere
TTITLE13=Zasneny gepard
EXTD=
EXTT0=
EXTT1=
EXTT2=
EXTT3=
EXTT4=
EXTT5=
EXTT6=
EXTT7=
EXTT8=
EXTT9=
EXTT10=
EXTT11=
EXTT12=
EXTT13=
PLAYORDER=
